<svg width="412" height="412" viewBox="0 0 412 412" fill="none" xmlns="http://www.w3.org/2000/svg">
<path opacity="0.8" d="M68.0051 115.77C68.0051 117.283 66.7788 118.509 65.266 118.509C63.7532 118.509 62.5269 117.283 62.5269 115.77C62.5269 114.257 63.7532 113.031 65.266 113.031C66.7788 113.031 68.0051 114.257 68.0051 115.77Z" fill="#C1C1C1"/>
<path opacity="0.8" d="M349.222 115.77C349.222 117.283 347.996 118.509 346.483 118.509C344.97 118.509 343.744 117.283 343.744 115.77C343.744 114.257 344.97 113.031 346.483 113.031C347.996 113.031 349.222 114.257 349.222 115.77Z" fill="#C1C1C1"/>
<path d="M103.337 351.003C102.621 350.487 102.498 349.683 103.025 348.929L114.892 331.938C115.418 331.184 116.206 331.037 116.922 331.553C117.638 332.069 117.761 332.873 117.235 333.627L105.368 350.618C104.841 351.372 104.053 351.519 103.337 351.003Z" fill="black"/>
<path d="M110.516 356.092C109.817 355.67 109.633 354.842 110.082 354.075L117.385 341.604C117.809 340.88 118.569 340.66 119.227 341.058C119.886 341.456 120.058 342.239 119.634 342.964L118.851 344.302L118.906 344.335C120.615 343.255 122.725 343.172 124.933 344.506C128.06 346.396 128.671 349.539 126.746 352.827L121.85 361.188C121.401 361.954 120.598 362.185 119.898 361.762C119.198 361.34 119.015 360.512 119.464 359.745L124.106 351.817C125.477 349.476 125.144 347.539 122.95 346.213C120.7 344.853 118.286 345.583 116.85 348.035L112.469 355.518C112.02 356.284 111.216 356.515 110.516 356.092Z" fill="black"/>
<path d="M136.009 347.676C135.165 347.252 134.81 346.188 135.227 345.33C135.651 344.458 136.691 344.112 137.536 344.536C138.394 344.967 138.756 346.016 138.332 346.888C137.915 347.746 136.868 348.107 136.009 347.676ZM127.296 365.6C126.566 365.234 126.319 364.423 126.708 363.623L132.998 350.685C133.386 349.886 134.17 349.592 134.9 349.958C135.63 350.324 135.876 351.135 135.487 351.935L129.198 364.873C128.809 365.672 128.026 365.966 127.296 365.6Z" fill="black"/>
<path d="M135.474 364.887L139.631 355.108L138.357 354.549C137.624 354.227 137.378 353.66 137.669 352.975C137.954 352.306 138.529 352.099 139.261 352.42L140.536 352.979L141.662 350.33C142.01 349.511 142.778 349.177 143.526 349.505C144.273 349.833 144.56 350.63 144.212 351.448L143.085 354.098L145.049 354.959C145.781 355.281 146.027 355.848 145.742 356.517C145.451 357.202 144.876 357.409 144.144 357.088L142.181 356.226L138.264 365.44C137.707 366.75 137.896 367.574 139.132 368.223L139.346 368.334C140.155 368.76 140.391 369.269 140.131 369.88C139.796 370.668 139.179 370.892 137.758 370.269L137.597 370.198C135.136 369.118 134.424 367.358 135.474 364.887Z" fill="black"/>
<path d="M151.576 354.452C150.691 354.123 150.226 353.104 150.549 352.206C150.879 351.292 151.876 350.835 152.76 351.163C153.66 351.498 154.131 352.502 153.802 353.415C153.478 354.314 152.475 354.787 151.576 354.452ZM144.813 373.225C144.048 372.941 143.717 372.162 144.019 371.324L148.901 357.774C149.202 356.936 149.95 356.558 150.715 356.843C151.479 357.127 151.81 357.906 151.508 358.743L146.627 372.294C146.325 373.131 145.577 373.509 144.813 373.225Z" fill="black"/>
<path d="M155.929 376.945C152.752 376.025 151.165 373.459 151.983 370.543C152.761 367.767 155.354 366.63 159.099 367.477L163.762 368.541L164.143 367.184C164.698 365.204 163.741 363.646 161.531 363.006C159.796 362.504 158.435 362.801 157.095 364.15C156.722 364.531 156.312 364.631 155.806 364.485C155.115 364.285 154.76 363.659 154.965 362.926C155.061 362.583 155.278 362.225 155.602 361.897C157.006 360.381 159.667 359.887 162.261 360.638C166.006 361.722 167.793 364.464 166.888 367.692L164.05 377.812C163.822 378.623 163.143 379.033 162.406 378.82C161.654 378.602 161.29 377.89 161.517 377.079L161.994 375.379L161.932 375.361C160.46 376.941 158.078 377.567 155.929 376.945ZM157.175 374.81C159.692 375.539 162.144 374.31 162.8 371.971L163.172 370.646L158.815 369.671C156.627 369.19 155.128 369.801 154.7 371.329C154.267 372.873 155.256 374.255 157.175 374.81Z" fill="black"/>
<path d="M170.741 376.388L172.75 365.933L171.387 365.663C170.604 365.508 170.245 365.007 170.386 364.275C170.523 363.559 171.041 363.232 171.825 363.387L173.187 363.658L173.732 360.825C173.9 359.95 174.58 359.457 175.379 359.615C176.178 359.774 176.625 360.49 176.457 361.366L175.913 364.198L178.012 364.614C178.795 364.77 179.154 365.27 179.017 365.986C178.876 366.718 178.358 367.045 177.575 366.89L175.476 366.474L173.583 376.324C173.314 377.724 173.671 378.489 175.016 378.854L175.247 378.917C176.128 379.158 176.465 379.604 176.34 380.257C176.178 381.1 175.622 381.453 174.103 381.151L173.93 381.117C171.299 380.595 170.234 379.029 170.741 376.388Z" fill="black"/>
<path d="M184.299 362.707C183.366 362.578 182.697 361.683 182.825 360.735C182.955 359.772 183.833 359.108 184.766 359.238C185.715 359.369 186.386 360.248 186.256 361.212C186.129 362.16 185.248 362.839 184.299 362.707ZM181.634 382.514C180.828 382.402 180.34 381.713 180.459 380.829L182.383 366.532C182.502 365.649 183.153 365.117 183.96 365.229C184.766 365.341 185.253 366.031 185.134 366.914L183.211 381.211C183.092 382.095 182.44 382.626 181.634 382.514Z" fill="black"/>
<path d="M195.425 383.873C190.836 383.605 187.935 380.073 188.239 374.715C188.544 369.342 191.824 366.188 196.413 366.457C200.986 366.725 203.887 370.24 203.582 375.614C203.278 380.972 199.997 384.141 195.425 383.873ZM195.565 381.397C198.497 381.569 200.537 379.415 200.762 375.449C200.987 371.483 199.204 369.105 196.273 368.934C193.341 368.762 191.284 370.915 191.059 374.881C190.834 378.846 192.634 381.225 195.565 381.397Z" fill="black"/>
<path d="M209.943 384.202C209.131 384.248 208.524 383.665 208.475 382.775L207.684 368.286C207.638 367.444 208.148 366.831 208.913 366.788C209.678 366.745 210.251 367.297 210.297 368.139L210.382 369.693L210.446 369.689C211.271 367.824 212.976 366.559 215.542 366.414C219.175 366.21 221.408 368.471 221.617 372.291L222.147 382.004C222.196 382.895 221.655 383.542 220.843 383.588C220.03 383.634 219.424 383.051 219.375 382.16L218.872 372.949C218.723 370.23 217.383 368.811 214.833 368.955C212.22 369.102 210.618 371.076 210.773 373.925L211.248 382.618C211.297 383.509 210.756 384.156 209.943 384.202Z" fill="black"/>
<path d="M242.806 380.15C238.014 381.186 234.546 378.654 233.43 373.326C232.34 368.125 234.516 364.106 238.996 363.137C243.149 362.239 246.729 364.764 247.676 369.283C247.885 370.282 247.449 371.006 246.513 371.209L236.366 373.404C237.064 376.734 239.292 378.407 242.195 377.779C244.13 377.36 245.171 376.406 246.043 374.261C246.241 373.804 246.52 373.578 246.941 373.487C247.659 373.331 248.243 373.703 248.396 374.432C248.442 374.654 248.424 374.956 248.362 375.285C247.785 377.747 245.772 379.508 242.806 380.15ZM235.93 371.243L244.75 369.336C244.089 366.495 241.964 364.999 239.451 365.542C236.922 366.089 235.507 368.368 235.93 371.243Z" fill="black"/>
<path d="M256.453 376.583C255.644 376.833 254.958 376.435 254.698 375.566L250.88 362.799L249.567 363.204C248.88 363.416 248.316 363.149 248.107 362.451C247.908 361.784 248.216 361.198 248.903 360.986L250.217 360.58L249.679 358.781C248.755 355.694 249.761 353.757 252.357 352.955C253.761 352.522 254.648 352.756 254.885 353.548C255.033 354.044 254.898 354.425 254.45 354.715C254.24 354.848 253.99 354.959 253.654 355.063C252.249 355.496 251.852 356.399 252.348 358.058L252.859 359.765L255.21 359.039C255.897 358.827 256.475 359.14 256.674 359.807C256.883 360.505 256.561 361.045 255.873 361.257L253.537 361.979L257.355 374.746C257.615 375.615 257.263 376.333 256.453 376.583Z" fill="black"/>
<path d="M267.296 372.883C266.504 373.186 265.794 372.833 265.479 371.984L260.857 359.494L259.573 359.984C258.9 360.241 258.321 360.012 258.068 359.329C257.827 358.677 258.097 358.071 258.769 357.814L260.053 357.324L259.402 355.563C258.284 352.543 259.164 350.544 261.704 349.574C263.078 349.049 263.979 349.225 264.265 349.999C264.445 350.484 264.333 350.874 263.906 351.193C263.704 351.339 263.461 351.466 263.133 351.592C261.759 352.117 261.419 353.043 262.02 354.667L262.638 356.337L264.938 355.458C265.61 355.201 266.207 355.476 266.448 356.128C266.701 356.811 266.414 357.371 265.741 357.628L263.456 358.501L268.079 370.991C268.394 371.84 268.088 372.581 267.296 372.883Z" fill="black"/>
<path d="M281.79 366.64C277.641 368.652 273.424 366.979 271.148 362.136C268.865 357.279 270.242 352.909 274.391 350.897C278.524 348.892 282.734 350.551 285.017 355.409C287.293 360.251 285.923 364.635 281.79 366.64ZM280.738 364.402C283.387 363.117 284.153 360.23 282.468 356.645C280.784 353.06 278.092 351.851 275.443 353.136C272.792 354.421 272.013 357.315 273.698 360.899C275.383 364.484 278.087 365.687 280.738 364.402Z" fill="black"/>
<path d="M294.28 359.969C293.582 360.395 292.778 360.166 292.326 359.402L284.977 346.959C284.55 346.236 284.719 345.452 285.376 345.052C286.033 344.651 286.794 344.869 287.221 345.591L288.042 346.982L288.097 346.948C287.62 345.196 288.359 343.233 289.782 342.366C290.302 342.049 290.746 341.948 291.11 342.029C291.43 342.099 291.69 342.318 291.887 342.652C292.109 343.027 292.15 343.381 292.019 343.725C291.895 344.084 291.584 344.406 291.064 344.723C288.915 346.033 288.926 348.163 290.018 350.012L294.707 357.95C295.159 358.715 294.978 359.544 294.28 359.969Z" fill="black"/>
<path d="M301.24 350.638L295.342 341.831L294.194 342.624C293.534 343.08 292.932 342.987 292.519 342.37C292.115 341.767 292.251 341.163 292.91 340.707L294.058 339.914L292.46 337.528C291.966 336.79 292.1 335.953 292.774 335.487C293.446 335.022 294.263 335.203 294.756 335.941L296.354 338.327L298.122 337.105C298.782 336.649 299.385 336.741 299.789 337.345C300.202 337.961 300.066 338.566 299.406 339.022L297.638 340.243L303.195 348.541C303.985 349.721 304.771 350.001 305.973 349.288L306.18 349.164C306.968 348.698 307.518 348.769 307.886 349.319C308.361 350.029 308.217 350.678 306.937 351.563L306.792 351.663C304.575 353.196 302.73 352.863 301.24 350.638Z" fill="black"/>
<path d="M153.789 59.1317C153.46 59.2293 153.208 59.0807 153.106 58.738L147.475 39.7382C147.361 39.3544 147.53 39.0207 147.913 38.9067C148.269 38.8009 148.514 38.9221 148.77 39.2337L161.971 54.9376L162.053 54.9132L164.52 34.5489C164.574 34.13 164.731 33.9044 165.087 33.7986C165.47 33.6846 165.807 33.8677 165.921 34.2516L171.552 53.2514C171.654 53.594 171.523 53.8567 171.194 53.9544C170.88 54.048 170.614 53.9034 170.512 53.5607L165.417 36.3704L165.362 36.3867L162.989 55.7089C162.936 56.0826 162.789 56.2905 162.447 56.3922C162.105 56.494 161.868 56.4001 161.62 56.1159L149.106 41.2221L149.051 41.2384L154.146 58.4287C154.248 58.7714 154.103 59.038 153.789 59.1317Z" fill="#7C7C7C"/>
<path d="M180.955 52.2698C177.028 52.9326 173.94 50.4086 173.167 45.8116C172.394 41.2146 174.486 37.8163 178.413 37.1534C182.354 36.4882 185.442 39.0123 186.216 43.6092C186.986 48.1921 184.897 51.6046 180.955 52.2698ZM180.789 51.2826C184.083 50.7267 185.794 47.8133 185.118 43.7945C184.442 39.7757 181.873 37.5845 178.579 38.1405C175.3 38.694 173.587 41.5933 174.265 45.6263C174.943 49.6592 177.51 51.8362 180.789 51.2826Z" fill="#7C7C7C"/>
<path d="M195.597 50.5065C191.895 50.7709 189.07 47.876 188.745 43.3117C188.42 38.7473 190.792 35.4813 194.494 35.2169C197.242 35.0206 199.507 36.6795 200.326 38.9434L200.355 38.9414L199.695 29.6701C199.67 29.3135 199.88 29.0547 200.193 29.0324C200.521 29.009 200.78 29.2342 200.806 29.5908L202.22 49.46C202.244 49.8023 202.032 50.0468 201.719 50.0692C201.406 50.0915 201.134 49.8959 201.109 49.5393L200.852 45.9306L200.824 45.9327C200.352 48.3461 198.359 50.3092 195.597 50.5065ZM195.668 49.4978C198.843 49.271 200.9 46.4003 200.62 42.4635C200.34 38.5268 197.897 35.9774 194.722 36.2042C191.575 36.4289 189.572 39.2528 189.855 43.2181C190.138 47.1977 192.521 49.7225 195.668 49.4978Z" fill="#7C7C7C"/>
<path d="M211.661 50.1722C207.538 50.0517 205.051 47.1609 205.19 42.3867C205.328 37.6698 207.998 34.7292 211.922 34.8438C215.703 34.9543 218.202 37.9027 218.079 42.1051C218.065 42.5911 217.772 42.8686 217.272 42.854L206.314 42.534C206.195 46.6363 208.28 49.0863 211.647 49.1847C214.101 49.2563 215.948 48.1086 216.723 46.0425C216.814 45.8449 216.946 45.7201 217.189 45.7271C217.474 45.7355 217.682 45.9418 217.673 46.2419C217.671 46.342 217.623 46.5123 217.576 46.6397C216.797 48.8916 214.529 50.2559 211.661 50.1722ZM206.356 41.6053L216.943 41.9145C217.031 38.3835 215.003 35.9209 211.893 35.8301C208.811 35.7401 206.617 38.0364 206.356 41.6053Z" fill="#7C7C7C"/>
<path d="M220.927 50.7108C220.601 50.6753 220.4 50.409 220.439 50.0536L221.962 35.9792C221.999 35.638 222.222 35.4321 222.548 35.4676C222.861 35.5015 223.035 35.7506 222.998 36.0918L222.719 38.6649L222.748 38.668C223.545 36.7409 225.117 35.7466 226.934 35.9439C227.416 35.9963 227.862 36.1167 228.226 36.3432C228.426 36.48 228.553 36.6376 228.527 36.8793C228.505 37.0783 228.389 37.2239 228.212 37.2623C227.908 37.2868 227.6 37.0807 226.791 36.9929C224.365 36.7293 222.796 38.6158 222.501 41.3453L221.545 50.1738C221.507 50.5292 221.254 50.7462 220.927 50.7108Z" fill="#7C7C7C"/>
<path d="M232.496 52.2219C229.64 51.7294 227.95 49.6821 228.374 47.2159C228.798 44.7497 230.827 43.5617 234.275 43.8951L239.371 44.4115L239.597 43.1009C240.033 40.5642 238.763 38.7637 236.175 38.3172C233.84 37.9145 232.057 38.6807 231.083 40.8054C230.955 41.0445 230.779 41.1446 230.54 41.1034C230.244 41.0524 230.081 40.8212 230.134 40.5111C230.173 40.2857 230.316 39.962 230.479 39.6855C231.47 37.8829 233.615 36.86 236.358 37.3332C239.58 37.8888 241.234 40.1475 240.708 43.2055L239.066 52.7603C239.006 53.1126 238.742 53.2992 238.432 53.2459C238.123 53.1925 237.951 52.9306 238.011 52.5783L238.491 49.788L238.463 49.7831C237.376 51.6416 234.944 52.6441 232.496 52.2219ZM232.829 51.2928C235.685 51.7853 238.395 50.0908 238.843 47.4837L239.216 45.3134L234.274 44.8237C231.481 44.5596 229.798 45.5027 229.481 47.3488C229.144 49.3077 230.551 50.8997 232.829 51.2928Z" fill="#7C7C7C"/>
<path d="M243.697 50.9288L246.223 40.5802L244.448 40.1455C244.115 40.064 243.979 39.8393 244.047 39.5615C244.121 39.2559 244.342 39.1333 244.675 39.2148L246.45 39.6496L247.277 36.2602C247.362 35.913 247.624 35.7417 247.943 35.8197C248.262 35.898 248.43 36.1746 248.345 36.5218L247.518 39.9112L250.041 40.5291C250.36 40.6074 250.513 40.8214 250.439 41.127C250.371 41.4048 250.133 41.538 249.814 41.4598L247.291 40.8418L244.803 51.0376C244.389 52.7323 244.822 53.5449 246.271 53.9293L246.937 54.0923C247.28 54.1913 247.42 54.402 247.352 54.6799C247.274 54.9993 247.036 55.1323 246.523 55.0066L245.871 54.8471C243.86 54.3546 243.148 53.1791 243.697 50.9288Z" fill="#7C7C7C"/>
<path d="M254.564 57.5897C250.635 56.3316 249.043 52.8645 250.495 48.3151C251.929 43.8202 255.307 41.7342 259.046 42.9316C262.65 44.0855 264.237 47.6113 262.959 51.6158C262.811 52.0789 262.452 52.2641 261.977 52.112L251.535 48.7682C250.287 52.6774 251.614 55.6094 254.823 56.6368C257.162 57.3858 259.253 56.7945 260.568 55.0237C260.71 54.859 260.872 54.7757 261.103 54.8498C261.375 54.9368 261.518 55.1926 261.426 55.4786C261.396 55.574 261.304 55.7246 261.224 55.8341C259.852 57.7819 257.297 58.465 254.564 57.5897ZM251.83 47.887L261.919 51.1177C262.979 47.7488 261.71 44.8205 258.746 43.8714C255.809 42.931 253.067 44.5297 251.83 47.887Z" fill="#7C7C7C"/>
<rect x="1.05859" y="123.673" width="312.261" height="312.261" transform="rotate(-23.0633 1.05859 123.673)" stroke="black"/>
<path d="M374.557 263.126C374.453 263.452 374.17 263.585 373.817 263.472L354.963 257.385C354.61 257.271 354.458 256.997 354.562 256.671C354.667 256.345 354.953 256.198 355.306 256.312L363.98 259.112L367.953 246.705L359.279 243.905C358.926 243.791 358.774 243.517 358.883 243.177C358.988 242.851 359.27 242.718 359.623 242.832L378.478 248.918C378.831 249.032 378.983 249.306 378.878 249.632C378.769 249.971 378.487 250.105 378.134 249.991L368.931 247.02L364.958 259.427L374.161 262.398C374.514 262.512 374.662 262.799 374.557 263.126Z" fill="#7C7C7C"/>
<path d="M381.221 239.569C380.626 242.404 378.524 244.015 376.083 243.496C373.642 242.978 372.533 240.903 372.992 237.47L373.694 232.396L372.397 232.12C369.886 231.587 368.045 232.786 367.505 235.356C367.018 237.675 367.716 239.486 369.797 240.541C370.03 240.678 370.123 240.858 370.073 241.096C370.012 241.389 369.775 241.543 369.468 241.478C369.245 241.431 368.928 241.276 368.659 241.102C366.9 240.042 365.96 237.858 366.532 235.135C367.204 231.936 369.515 230.37 372.542 231.013L382 233.022C382.348 233.096 382.525 233.367 382.46 233.675C382.395 233.982 382.128 234.144 381.78 234.07L379.018 233.483L379.012 233.511C380.823 234.669 381.732 237.138 381.221 239.569ZM380.308 239.2C380.904 236.364 379.316 233.59 376.735 233.042L374.587 232.585L373.917 237.506C373.551 240.288 374.428 242.007 376.256 242.395C378.195 242.807 379.833 241.462 380.308 239.2Z" fill="#7C7C7C"/>
<path d="M383.358 227.814C383.315 228.14 383.046 228.335 382.692 228.288L368.698 226.444C368.358 226.399 368.158 226.171 368.2 225.846C368.24 225.534 368.492 225.366 368.832 225.411L371.39 225.748L371.394 225.719C369.49 224.878 368.532 223.283 368.767 221.471C368.83 220.99 368.959 220.547 369.192 220.188C369.333 219.991 369.493 219.868 369.733 219.9C369.931 219.926 370.074 220.046 370.108 220.223C370.126 220.528 369.914 220.831 369.81 221.638C369.496 224.058 371.343 225.669 374.057 226.027L382.835 227.184C383.189 227.23 383.4 227.489 383.358 227.814Z" fill="#7C7C7C"/>
<path d="M384.791 214.083C384.548 217.786 381.304 220.185 376.752 219.877C372.201 219.569 369.299 216.768 369.542 213.065C369.723 210.315 371.67 208.301 374.018 207.801L374.02 207.773L364.774 207.147C364.418 207.123 364.192 206.879 364.212 206.565C364.234 206.238 364.492 206.012 364.847 206.036L384.661 207.377C385.002 207.4 385.215 207.644 385.194 207.957C385.174 208.27 384.944 208.512 384.588 208.488L380.989 208.245L380.987 208.273C383.306 209.074 384.973 211.319 384.791 214.083ZM383.805 213.873C384.014 210.696 381.46 208.262 377.534 207.996C373.608 207.731 370.757 209.798 370.548 212.975C370.341 216.123 372.857 218.497 376.811 218.765C380.78 219.034 383.598 217.021 383.805 213.873Z" fill="#7C7C7C"/>
<rect x="125.241" y="0.608704" width="312.261" height="312.261" transform="rotate(23.5813 125.241 0.608704)" stroke="black"/>
<path d="M26.9133 208.908C26.877 208.563 27.0794 208.319 27.4452 208.273L46.5681 205.838C46.934 205.791 47.1819 205.978 47.2182 206.322L48.3906 217.43C48.4285 217.789 48.2402 218.031 47.9447 218.069C47.6351 218.108 47.4013 217.92 47.3634 217.561L46.2516 207.027L37.8933 208.091L38.9506 218.109C38.9869 218.453 38.8126 218.694 38.5031 218.733C38.2076 218.771 37.9738 218.582 37.9374 218.238L36.8801 208.22L28.0011 209.351L29.1129 219.885C29.1508 220.244 28.9624 220.486 28.6529 220.526C28.3574 220.563 28.1236 220.375 28.0858 220.016L26.9133 208.908Z" fill="#7C7C7C"/>
<path d="M29.4596 229.282C28.8982 226.412 30.1878 224.048 32.6167 223.512C35.0457 222.975 36.8654 224.431 37.7845 227.797L39.1215 232.78L40.4123 232.495C42.9106 231.943 44.1221 230.068 43.6133 227.467C43.1542 225.121 41.8119 223.736 39.5027 223.627C39.2363 223.598 39.081 223.47 39.0339 223.23C38.9759 222.933 39.1314 222.692 39.4368 222.624C39.6589 222.575 40.0086 222.587 40.3222 222.635C42.3398 222.882 44.0484 224.51 44.5876 227.267C45.2209 230.503 43.7232 232.914 40.7113 233.579L31.3008 235.658C30.9538 235.735 30.6875 235.558 30.6266 235.247C30.5658 234.936 30.7464 234.675 31.0933 234.598L33.8416 233.991L33.836 233.962C31.7324 233.646 29.9408 231.741 29.4596 229.282ZM30.4366 229.243C30.998 232.112 33.5279 234.016 36.0956 233.448L38.2331 232.976L36.9266 228.148C36.1763 225.424 34.7062 224.2 32.8879 224.602C30.9586 225.028 29.9886 226.953 30.4366 229.243Z" fill="#7C7C7C"/>
<path d="M33.3192 245.399C32.5302 242.666 33.3329 240.105 35.3175 238.918C35.4046 238.86 35.5228 238.808 35.6179 238.778C35.9166 238.683 36.1625 238.816 36.2462 239.106C36.3219 239.368 36.1988 239.558 35.8449 239.821C34.21 240.987 33.5955 242.915 34.249 245.18C34.9344 247.555 36.645 248.911 38.4105 248.351C39.9042 247.877 40.429 246.716 40.2931 244.242L40.185 242.122C40.0127 239.162 40.7733 237.534 42.593 236.957C44.8337 236.246 47.0123 237.786 47.8571 240.713C48.6062 243.309 47.7206 245.685 45.6849 246.797C45.5707 246.864 45.4524 246.916 45.3574 246.946C45.0586 247.041 44.8342 246.932 44.7545 246.655C44.6828 246.407 44.7612 246.216 45.1327 245.963C46.65 244.954 47.5927 243.238 46.9313 240.946C46.2857 238.71 44.6109 237.478 42.9405 238.007C41.5825 238.438 41.0602 239.659 41.1921 242.119L41.3002 244.239C41.4676 247.336 40.7583 248.782 38.7892 249.407C36.4534 250.147 34.2158 248.506 33.3192 245.399Z" fill="#7C7C7C"/>
<path d="M31.9999 257.376C31.7813 256.799 31.7803 256.273 32.1765 256.11C32.4143 256.013 32.6205 256.114 32.7221 256.382C32.7933 256.57 32.7995 256.707 32.9113 257.002C33.3383 258.128 34.2366 258.565 36.3998 258.513L37.6902 258.495L49.1082 247.826C49.1905 247.761 49.2728 247.696 49.3653 247.658C49.6559 247.539 49.9272 247.691 50.0441 248C50.1457 248.268 50.0777 248.451 49.8359 248.658L39.0691 258.549L39.0844 258.589L53.4397 258.165C53.7578 258.158 53.9275 258.243 54.0241 258.498C54.141 258.807 54.0425 259.11 53.7519 259.23C53.6594 259.268 53.5568 259.279 53.4542 259.29L37.5706 259.629C33.8354 259.721 32.7115 259.253 31.9999 257.376Z" fill="#7C7C7C"/>
</svg>
